<svg height="512pt" viewBox="-17 0 512 512" width="512pt" xmlns="http://www.w3.org/2000/svg"><path d="m469.332031 162.132812v307.199219c.003907 9.054688-3.589843 17.738281-9.992187 24.140625s-15.085938 9.996094-24.140625 9.992188h-392.53125c-9.054688.003906-17.738281-3.589844-24.140625-9.992188s-9.996094-15.085937-9.992188-24.140625v-307.199219zm0 0" fill="#9e9e9e"/><path d="m443.734375 162.132812v307.199219c0 9.054688-3.59375 17.738281-9.996094 24.140625-6.402343 6.402344-15.085937 9.996094-24.136719 9.992188h-366.933593c-9.054688.003906-17.738281-3.589844-24.140625-9.992188s-9.996094-15.085937-9.992188-24.140625v-307.199219zm0 0" fill="#f5f5f5"/><path d="m469.332031 76.800781v85.332031h-460.796875v-85.332031c-.003906-9.054687 3.589844-17.738281 9.992188-24.140625s15.085937-9.996094 24.140625-9.992187h392.53125c9.054687-.003907 17.738281 3.589843 24.140625 9.992187s9.996094 15.085938 9.992187 24.140625zm0 0" fill="#c52828"/><path d="m443.734375 76.800781v85.332031h-435.199219v-85.332031c-.003906-9.054687 3.589844-17.738281 9.992188-24.140625s15.085937-9.996094 24.140625-9.992187h366.933593c9.050782-.003907 17.734376 3.589843 24.136719 9.992187 6.402344 6.402344 9.996094 15.085938 9.996094 24.140625zm0 0" fill="#f44335"/><path d="m119.464844 64.339844c13.382812 7.726562 19.902344 23.472656 15.90625 38.394531-4 14.925781-17.523438 25.300781-32.972656 25.300781-15.449219 0-28.96875-10.375-32.96875-25.300781-4-14.921875 2.523437-30.667969 15.902343-38.394531" fill="#424242"/><path d="m256 64.339844c13.378906 7.726562 19.902344 23.472656 15.902344 38.394531-3.996094 14.925781-17.519532 25.300781-32.96875 25.300781-15.449219 0-28.972656-10.375-32.96875-25.300781-4-14.921875 2.523437-30.667969 15.902344-38.394531" fill="#424242"/><path d="m392.535156 64.339844c13.378906 7.726562 19.898438 23.472656 15.902344 38.394531-4 14.925781-17.523438 25.300781-32.972656 25.300781-15.445313 0-28.96875-10.375-32.96875-25.300781-4-14.921875 2.523437-30.667969 15.902344-38.394531" fill="#424242"/><g fill="#a5a5a4"><path d="m51.199219 204.800781h-8.53125c-4.714844 0-8.535157-3.820312-8.535157-8.535156 0-4.710937 3.820313-8.53125 8.535157-8.53125h8.53125c4.714843 0 8.535156 3.820313 8.535156 8.53125 0 4.714844-3.820313 8.535156-8.535156 8.535156zm0 0"/><path d="m93.867188 204.800781h-8.535157c-4.710937 0-8.53125-3.820312-8.53125-8.535156 0-4.710937 3.820313-8.53125 8.53125-8.53125h8.535157c4.710937 0 8.53125 3.820313 8.53125 8.53125 0 4.714844-3.820313 8.535156-8.53125 8.535156zm0 0"/><path d="m136.535156 204.800781h-8.535156c-4.710938 0-8.535156-3.820312-8.535156-8.535156 0-4.710937 3.824218-8.53125 8.535156-8.53125h8.535156c4.710938 0 8.53125 3.820313 8.53125 8.53125 0 4.714844-3.820312 8.535156-8.53125 8.535156zm0 0"/><path d="m179.199219 204.800781h-8.53125c-4.714844 0-8.535157-3.820312-8.535157-8.535156 0-4.710937 3.820313-8.53125 8.535157-8.53125h8.53125c4.714843 0 8.535156 3.820313 8.535156 8.53125 0 4.714844-3.820313 8.535156-8.535156 8.535156zm0 0"/><path d="m221.867188 204.800781h-8.535157c-4.710937 0-8.53125-3.820312-8.53125-8.535156 0-4.710937 3.820313-8.53125 8.53125-8.53125h8.535157c4.710937 0 8.53125 3.820313 8.53125 8.53125 0 4.714844-3.820313 8.535156-8.53125 8.535156zm0 0"/><path d="m264.535156 204.800781h-8.535156c-4.710938 0-8.535156-3.820312-8.535156-8.535156 0-4.710937 3.824218-8.53125 8.535156-8.53125h8.535156c4.710938 0 8.53125 3.820313 8.53125 8.53125 0 4.714844-3.820312 8.535156-8.53125 8.535156zm0 0"/><path d="m307.199219 204.800781h-8.53125c-4.714844 0-8.535157-3.820312-8.535157-8.535156 0-4.710937 3.820313-8.53125 8.535157-8.53125h8.53125c4.714843 0 8.535156 3.820313 8.535156 8.53125 0 4.714844-3.820313 8.535156-8.535156 8.535156zm0 0"/><path d="m349.867188 204.800781h-8.535157c-4.710937 0-8.53125-3.820312-8.53125-8.535156 0-4.710937 3.820313-8.53125 8.53125-8.53125h8.535157c4.710937 0 8.53125 3.820313 8.53125 8.53125 0 4.714844-3.820313 8.535156-8.53125 8.535156zm0 0"/><path d="m392.535156 204.800781h-8.535156c-4.710938 0-8.535156-3.820312-8.535156-8.535156 0-4.710937 3.824218-8.53125 8.535156-8.53125h8.535156c4.710938 0 8.53125 3.820313 8.53125 8.53125 0 4.714844-3.820312 8.535156-8.53125 8.535156zm0 0"/><path d="m435.199219 204.800781h-8.53125c-4.714844 0-8.535157-3.820312-8.535157-8.535156 0-4.710937 3.820313-8.53125 8.535157-8.53125h8.53125c4.714843 0 8.535156 3.820313 8.535156 8.53125 0 4.714844-3.820313 8.535156-8.535156 8.535156zm0 0"/><path d="m307.199219 460.800781h-179.199219c-4.710938 0-8.535156-3.820312-8.535156-8.535156 0-4.710937 3.824218-8.53125 8.535156-8.53125h179.199219c4.714843 0 8.535156 3.820313 8.535156 8.53125 0 4.714844-3.820313 8.535156-8.535156 8.535156zm0 0"/><path d="m358.398438 460.800781h-17.066407c-4.710937 0-8.53125-3.820312-8.53125-8.535156 0-4.710937 3.820313-8.53125 8.53125-8.53125h17.066407c4.714843 0 8.535156 3.820313 8.535156 8.53125 0 4.714844-3.820313 8.535156-8.535156 8.535156zm0 0"/></g><path d="m102.398438 8.535156c9.425781 0 17.066406 7.640625 17.066406 17.066406v51.199219c0 9.425781-7.640625 17.066407-17.066406 17.066407-9.425782 0-17.066407-7.640626-17.066407-17.066407v-51.199219c0-9.425781 7.640625-17.066406 17.066407-17.066406zm0 0" fill="#9e9e9e"/><path d="m238.933594 8.535156c9.425781 0 17.066406 7.640625 17.066406 17.066406v51.199219c0 9.425781-7.640625 17.066407-17.066406 17.066407-9.425782 0-17.066406-7.640626-17.066406-17.066407v-51.199219c0-9.425781 7.640624-17.066406 17.066406-17.066406zm0 0" fill="#9e9e9e"/><path d="m375.464844 8.535156c9.425781 0 17.070312 7.640625 17.070312 17.066406v51.199219c0 9.425781-7.644531 17.066407-17.070312 17.066407-9.425782 0-17.066406-7.640626-17.066406-17.066407v-51.199219c0-9.425781 7.640624-17.066406 17.066406-17.066406zm0 0" fill="#9e9e9e"/><path d="m165.308594 360.523438 33.871094 33.757812 127.804687-157.351562c3.785156-4.652344 9.671875-7.074219 15.636719-6.425782 5.960937.648438 11.191406 4.273438 13.890625 9.628906l.023437.042969c2.9375 5.855469 2.371094 12.855469-1.464844 18.160157l-134.988281 186.859374c-3.023437 4.175782-7.773437 6.765626-12.921875 7.046876-5.152344.277343-10.152344-1.78125-13.613281-5.605469l-54.582031-60.445313c-4.855469-5.375-5.917969-13.175781-2.667969-19.652344l.722656-1.4375c2.550781-5.066406 7.375-8.601562 12.976563-9.507812 5.597656-.90625 11.292968.929688 15.3125 4.929688zm0 0" fill="#4caf50"/><path d="m477.867188 76.800781c-.027344-23.554687-19.113282-42.640625-42.667969-42.667969h-34.132813v-8.53125c0-14.140624-11.460937-25.601562-25.601562-25.601562-14.136719 0-25.597656 11.460938-25.597656 25.601562v8.53125h-85.332032v-8.53125c0-14.140624-11.464844-25.601562-25.601562-25.601562-14.140625 0-25.601563 11.460938-25.601563 25.601562v8.53125h-85.332031v-8.53125c0-14.140624-11.460938-25.601562-25.601562-25.601562-14.136719 0-25.597657 11.460938-25.597657 25.601562v8.53125h-34.132812c-23.554688.027344-42.6406252 19.113282-42.667969 42.667969v392.53125c.0273438 23.554688 19.113281 42.640625 42.667969 42.667969h392.53125c23.554687-.027344 42.640625-19.113281 42.667969-42.667969zm-110.933594-51.199219c0-4.714843 3.820312-8.535156 8.53125-8.535156 4.714844 0 8.535156 3.820313 8.535156 8.535156v51.199219c0 4.710938-3.820312 8.53125-8.535156 8.53125-4.710938 0-8.53125-3.820312-8.53125-8.53125zm-15.453125 59.863282c3.605469 10.152344 13.210937 16.933594 23.984375 16.933594 10.773437 0 20.382812-6.78125 23.988281-16.933594 1.011719 2.6875 1.558594 5.53125 1.613281 8.402344 0 14.136718-11.460937 25.597656-25.601562 25.597656-14.136719 0-25.597656-11.460938-25.597656-25.597656.054687-2.871094.601562-5.714844 1.613281-8.402344zm-121.082031-59.863282c0-4.714843 3.820312-8.535156 8.535156-8.535156 4.710937 0 8.53125 3.820313 8.53125 8.535156v51.199219c0 4.710938-3.820313 8.53125-8.53125 8.53125-4.714844 0-8.535156-3.820312-8.535156-8.53125zm-15.453126 59.863282c3.605469 10.152344 13.214844 16.933594 23.988282 16.933594 10.773437 0 20.378906-6.78125 23.984375-16.933594 1.015625 2.6875 1.558593 5.53125 1.617187 8.402344 0 14.136718-11.464844 25.597656-25.601562 25.597656-14.140625 0-25.601563-11.460938-25.601563-25.597656.054688-2.871094.601563-5.714844 1.613281-8.402344zm-121.078124-59.863282c0-4.714843 3.820312-8.535156 8.53125-8.535156 4.714843 0 8.535156 3.820313 8.535156 8.535156v51.199219c0 4.710938-3.820313 8.53125-8.535156 8.53125-4.710938 0-8.53125-3.820312-8.53125-8.53125zm-15.453126 59.863282c3.605469 10.152344 13.210938 16.933594 23.984376 16.933594 10.773437 0 20.382812-6.78125 23.988281-16.933594 1.011719 2.6875 1.558593 5.53125 1.613281 8.402344 0 14.136718-11.460938 25.597656-25.601562 25.597656-14.136719 0-25.597657-11.460938-25.597657-25.597656.054688-2.871094.601563-5.714844 1.613281-8.402344zm382.386719 383.867187c-.015625 14.132813-11.46875 25.585938-25.601562 25.601563h-392.53125c-14.132813-.015625-25.585938-11.46875-25.601563-25.601563v-298.664062h443.734375zm0-315.730469h-443.734375v-76.800781c.015625-14.132812 11.46875-25.585937 25.601563-25.601562h34.132812v8.601562c-14.691406 11.019531-20.683593 30.203125-14.878906 47.625 5.808594 17.421875 22.113281 29.175781 40.476563 29.175781 18.367187 0 34.671874-11.753906 40.480468-29.175781 5.804688-17.421875-.1875-36.605469-14.878906-47.625v-8.601562h85.332031v8.601562c-14.691406 11.019531-20.683593 30.203125-14.875 47.625 5.808594 17.421875 22.109375 29.175781 40.476563 29.175781 18.363281 0 34.667968-11.753906 40.476562-29.175781s-.183594-36.605469-14.875-47.625v-8.601562h85.332032v8.601562c-14.691407 11.019531-20.683594 30.203125-14.878907 47.625 5.808594 17.421875 22.113281 29.175781 40.476563 29.175781 18.367187 0 34.671875-11.753906 40.480468-29.175781 5.804688-17.421875-.1875-36.605469-14.878906-47.625v-8.601562h34.132813c14.132812.015625 25.585937 11.46875 25.601562 25.601562zm0 0"/><path d="m42.667969 204.800781h8.53125c4.714843 0 8.535156-3.820312 8.535156-8.535156 0-4.710937-3.820313-8.53125-8.535156-8.53125h-8.53125c-4.714844 0-8.535157 3.820313-8.535157 8.53125 0 4.714844 3.820313 8.535156 8.535157 8.535156zm0 0"/><path d="m85.332031 204.800781h8.535157c4.710937 0 8.53125-3.820312 8.53125-8.535156 0-4.710937-3.820313-8.53125-8.53125-8.53125h-8.535157c-4.710937 0-8.53125 3.820313-8.53125 8.53125 0 4.714844 3.820313 8.535156 8.53125 8.535156zm0 0"/><path d="m128 204.800781h8.535156c4.710938 0 8.53125-3.820312 8.53125-8.535156 0-4.710937-3.820312-8.53125-8.53125-8.53125h-8.535156c-4.710938 0-8.535156 3.820313-8.535156 8.53125 0 4.714844 3.824218 8.535156 8.535156 8.535156zm0 0"/><path d="m170.667969 204.800781h8.53125c4.714843 0 8.535156-3.820312 8.535156-8.535156 0-4.710937-3.820313-8.53125-8.535156-8.53125h-8.53125c-4.714844 0-8.535157 3.820313-8.535157 8.53125 0 4.714844 3.820313 8.535156 8.535157 8.535156zm0 0"/><path d="m213.332031 204.800781h8.535157c4.710937 0 8.53125-3.820312 8.53125-8.535156 0-4.710937-3.820313-8.53125-8.53125-8.53125h-8.535157c-4.710937 0-8.53125 3.820313-8.53125 8.53125 0 4.714844 3.820313 8.535156 8.53125 8.535156zm0 0"/><path d="m256 204.800781h8.535156c4.710938 0 8.53125-3.820312 8.53125-8.535156 0-4.710937-3.820312-8.53125-8.53125-8.53125h-8.535156c-4.710938 0-8.535156 3.820313-8.535156 8.53125 0 4.714844 3.824218 8.535156 8.535156 8.535156zm0 0"/><path d="m298.667969 204.800781h8.53125c4.714843 0 8.535156-3.820312 8.535156-8.535156 0-4.710937-3.820313-8.53125-8.535156-8.53125h-8.53125c-4.714844 0-8.535157 3.820313-8.535157 8.53125 0 4.714844 3.820313 8.535156 8.535157 8.535156zm0 0"/><path d="m341.332031 204.800781h8.535157c4.710937 0 8.53125-3.820312 8.53125-8.535156 0-4.710937-3.820313-8.53125-8.53125-8.53125h-8.535157c-4.710937 0-8.53125 3.820313-8.53125 8.53125 0 4.714844 3.820313 8.535156 8.53125 8.535156zm0 0"/><path d="m384 204.800781h8.535156c4.710938 0 8.53125-3.820312 8.53125-8.535156 0-4.710937-3.820312-8.53125-8.53125-8.53125h-8.535156c-4.710938 0-8.535156 3.820313-8.535156 8.53125 0 4.714844 3.824218 8.535156 8.535156 8.535156zm0 0"/><path d="m426.667969 204.800781h8.53125c4.714843 0 8.535156-3.820312 8.535156-8.535156 0-4.710937-3.820313-8.53125-8.535156-8.53125h-8.53125c-4.714844 0-8.535157 3.820313-8.535157 8.53125 0 4.714844 3.820313 8.535156 8.535157 8.535156zm0 0"/><path d="m128 460.800781h179.199219c4.714843 0 8.535156-3.820312 8.535156-8.535156 0-4.710937-3.820313-8.53125-8.535156-8.53125h-75.535157l130.328126-180.402344c8.25-11.511719 5.859374-27.492187-5.398438-36.085937s-27.304688-6.6875-36.234375 4.304687l-121.847656 150.015625-27.179688-27.082031c-5.957031-5.9375-14.40625-8.65625-22.710937-7.3125-8.304688 1.347656-15.457032 6.59375-19.238282 14.109375l-.710937 1.433594c-4.875 9.609375-3.296875 21.230468 3.960937 29.195312l46.800782 51.824219h-51.433594c-4.710938 0-8.535156 3.820313-8.535156 8.53125 0 4.714844 3.824218 8.535156 8.535156 8.535156zm17.300781-80.324219c-2.515625-2.761718-3.0625-6.789062-1.371093-10.117187l.714843-1.433594c1.304688-2.628906 3.800781-4.457031 6.699219-4.910156.496094-.082031 1.003906-.125 1.511719-.125 2.414062 0 4.726562.964844 6.429687 2.675781l33.871094 33.757813c1.707031 1.707031 4.058594 2.609375 6.46875 2.484375s4.65625-1.269532 6.179688-3.140625l127.804687-157.359375c3.097656-3.84375 8.691406-4.527344 12.625-1.542969s4.785156 8.554687 1.917969 12.574219l-134.984375 186.851562c-1.515625 2.089844-3.894531 3.386719-6.472657 3.527344-2.578124.140625-5.082031-.890625-6.816406-2.800781zm0 0"/><path d="m358.398438 443.734375h-17.066407c-4.710937 0-8.53125 3.820313-8.53125 8.53125 0 4.714844 3.820313 8.535156 8.53125 8.535156h17.066407c4.714843 0 8.535156-3.820312 8.535156-8.535156 0-4.710937-3.820313-8.53125-8.535156-8.53125zm0 0"/></svg>