<svg height="512pt" viewBox="-23 0 512 512.00025" width="512pt" xmlns="http://www.w3.org/2000/svg"><path d="m413.941406 80.988281-138.136718-64.039062c-27.125-12.574219-58.40625-12.574219-85.53125 0l-138.136719 64.039062c-25.34375 11.75-42.242188 36.488281-43.78125 64.382813-3.035157 54.910156-.21875 147.070312 43.183593 210.648437 40.425782 59.21875 100.117188 107.230469 139.878907 135.300781 24.957031 17.621094 58.285156 17.621094 83.242187 0 39.761719-28.070312 99.453125-76.082031 139.878906-135.300781 43.402344-63.578125 46.21875-155.738281 43.183594-210.648437-1.539062-27.894532-18.433594-52.632813-43.78125-64.382813zm0 0" fill="#ccf8ff"/><path d="m190.273438 16.953125-138.136719 64.035156c-25.34375 11.753907-42.242188 36.488281-43.78125 64.382813-3.035157 54.910156-.21875 147.070312 43.1875 210.652344 31.082031 45.53125 73.550781 84.433593 109.59375 112.746093-4.714844-29.957031.664062-52.472656 8.632812-68.652343 9.023438-18.328126 26.464844-30.796876 46.46875-34.933594 35.492188-7.328125 56.386719-44.570313 55.636719-44.21875-60.023438-18.484375-92.242188-69.394532-109.023438-113.734375-13.597656-35.933594 2.445313-76.125 36.550782-93.816407 58.839844-30.523437 101.761718-84.707031 101.761718-84.707031l-25.359374-11.757812c-27.125-12.574219-58.40625-12.574219-85.53125.003906zm0 0" fill="#abebf4"/><path d="m233.039062 459.828125c-5.695312 0-11.171874-1.742187-15.832031-5.03125-38.835937-27.417969-92.695312-71.1875-128.738281-123.984375-36.691406-53.742188-37.972656-137.707031-35.472656-182.976562.628906-11.371094 7.503906-21.441407 17.945312-26.28125l138.136719-64.039063c7.5625-3.507813 15.625-5.285156 23.960937-5.285156 8.335938 0 16.398438 1.78125 23.960938 5.285156l138.136719 64.039063c10.441406 4.839843 17.316406 14.910156 17.945312 26.28125 2.503907 45.269531 1.222657 129.234374-35.46875 182.976562-36.042969 52.796875-89.902343 96.5625-128.738281 123.984375-4.660156 3.289063-10.136719 5.03125-15.835938 5.03125zm0 0" fill="#7ac1dd"/><path d="m199.402344 113.414062c27.542968-14.289062 51.59375-33.757812 69.390625-50.429687l-11.792969-5.46875c-7.5625-3.507813-15.625-5.285156-23.960938-5.285156-8.335937 0-16.398437 1.777343-23.960937 5.285156l-138.136719 64.039063c-10.4375 4.839843-17.3125 14.910156-17.941406 26.28125-2.503906 45.269531-1.222656 129.234374 35.46875 182.976562 21.328125 31.246094 48.898438 59.328125 75.898438 82.730469 1.558593-4.886719 3.398437-9.359375 5.402343-13.425781 9.023438-18.328126 26.464844-30.796876 46.46875-34.933594 35.492188-7.328125 56.386719-44.570313 55.636719-44.21875-60.023438-18.484375-92.242188-69.394532-109.023438-113.734375-13.597656-35.933594 2.445313-76.125 36.550782-93.816407zm0 0" fill="#61a5ce"/><path d="m325.054688 237.53125c0 50.816406-41.195313 92.011719-92.015626 92.011719-50.816406 0-92.011718-41.195313-92.011718-92.011719 0-50.820312 41.195312-92.015625 92.011718-92.015625 50.820313 0 92.015626 41.195313 92.015626 92.015625zm0 0" fill="#b2e59c"/><path d="m225.207031 284.179688c-4.058593 0-7.941406-1.640626-10.765625-4.554688l-27.132812-27.957031c-5.769532-5.945313-5.625-15.441407.320312-21.210938 5.941406-5.765625 15.4375-5.628906 21.210938.320313l16.261718 16.757812 40.375-42.398437c5.710938-6 15.207032-6.234375 21.207032-.519531 6 5.710937 6.230468 15.207031.519531 21.207031l-51.132813 53.699219c-2.816406 2.957031-6.710937 4.636718-10.792968 4.65625-.023438 0-.046875 0-.070313 0zm0 0" fill="#fff"/><path d="m233.039062 512c-16.101562 0-32.207031-4.851562-45.945312-14.550781-42.347656-29.898438-101.3125-77.972657-141.746094-137.199219-19.851562-29.082031-33.390625-66.65625-40.230468-111.679688-6.042969-39.804687-5.648438-78.3125-4.25-103.613281 1.691406-30.679687 20.128906-57.800781 48.117187-70.773437l138.136719-64.039063c29.179687-13.527343 62.65625-13.527343 91.839844 0l63.003906 29.210938c3.757812 1.738281 5.394531 6.199219 3.652344 9.957031-1.742188 3.757812-6.199219 5.390625-9.960938 3.652344l-63.003906-29.210938c-25.175782-11.667968-54.050782-11.667968-79.222656 0l-138.136719 64.039063c-22.945313 10.636719-38.0625 32.859375-39.449219 57.992187-2.761719 49.976563-.988281 143.195313 41.890625 206.007813 39.175781 57.382812 96.671875 104.214843 138.011719 133.402343 22.308594 15.75 52.285156 15.75 74.59375 0 41.335937-29.1875 98.832031-76.019531 138.007812-133.402343 42.878906-62.8125 44.652344-156.03125 41.890625-206.007813-1.390625-25.132812-16.503906-47.355468-39.449219-57.992187l-48.234374-22.359375c-3.757813-1.742188-5.390626-6.199219-3.648438-9.957032 1.742188-3.761718 6.199219-5.390624 9.960938-3.652343l48.230468 22.359375c27.984375 12.976562 46.421875 40.09375 48.117188 70.773437 1.398437 25.300781 1.792968 63.8125-4.253906 103.617188-6.839844 45.023437-20.371094 82.59375-40.226563 111.675781-40.433594 59.230469-99.398437 107.300781-141.746094 137.199219-13.742187 9.699219-29.84375 14.550781-45.949219 14.550781zm0 0"/><path d="m233.039062 467.328125c-7.253906 0-14.226562-2.214844-20.160156-6.40625-30.449218-21.496094-57.742187-44.15625-81.121094-67.34375-2.9375-2.917969-2.957031-7.667969-.042968-10.609375 2.917968-2.9375 7.667968-2.960938 10.609375-.042969 22.785156 22.605469 49.433593 44.726563 79.207031 65.742188 3.390625 2.394531 7.367188 3.660156 11.507812 3.660156 4.140626 0 8.121094-1.265625 11.511719-3.660156 38.332031-27.0625 91.457031-70.214844 126.867188-122.085938 15.214843-22.28125 39.882812-75.082031 34.175781-178.332031-.476562-8.597656-5.691406-16.222656-13.609375-19.890625l-138.136719-64.039063c-6.570312-3.046874-13.570312-4.589843-20.808594-4.589843-7.238281 0-14.238281 1.542969-20.804687 4.589843l-138.136719 64.039063c-7.921875 3.671875-13.136718 11.292969-13.609375 19.894531-5.707031 103.246094 18.960938 156.046875 34.175781 178.332032 7.472657 10.949218 16.160157 22.097656 25.8125 33.132812 2.726563 3.117188 2.410157 7.859375-.707031 10.582031-3.117187 2.730469-7.855469 2.410157-10.582031-.703125-10.046875-11.484375-19.101562-23.109375-26.914062-34.554687-16.78125-24.585938-28.109376-57.515625-33.667969-97.871094-4.75-34.515625-4.304688-67.855469-3.09375-89.746094.78125-14.148437 9.316406-26.667969 22.277343-32.675781l138.136719-64.039062c8.554688-3.96875 17.679688-5.980469 27.113281-5.980469 9.433594 0 18.558594 2.015625 27.117188 5.984375l138.136719 64.035156c12.960937 6.007812 21.496093 18.527344 22.277343 32.675781 2.554688 46.214844 1.175782 132.042969-36.761718 187.617188-36.675782 53.71875-91.265625 98.105469-130.609375 125.878906-5.933594 4.191406-12.902344 6.40625-20.160157 6.40625zm0 0"/><path d="m233.039062 337.660156c-54.871093 0-99.515624-44.644531-99.515624-99.515625 0-54.871093 44.644531-99.515625 99.515624-99.515625 54.871094 0 99.515626 44.644532 99.515626 99.515625 0 54.871094-44.644532 99.515625-99.515626 99.515625zm0-184.03125c-46.601562 0-84.515624 37.914063-84.515624 84.515625 0 46.601563 37.914062 84.511719 84.515624 84.511719 46.601563 0 84.515626-37.910156 84.515626-84.511719 0-46.601562-37.914063-84.515625-84.515626-84.515625zm0 0"/><path d="m225.207031 291.679688c-6.050781 0-11.9375-2.488282-16.148437-6.828126l-27.128906-27.957031c-8.644532-8.90625-8.429688-23.179687.476562-31.816406 8.902344-8.640625 23.175781-8.425781 31.816406.476563l10.828125 11.160156 34.992188-36.75c8.558593-8.984375 22.996093-9.511719 31.8125-.777344 13.378906 13.25 4.925781 27.457031.78125 31.808594l-51.136719 53.703125c-4.199219 4.410156-10.097656 6.953125-16.1875 6.984375-.011719-.003906-.09375-.003906-.105469-.003906zm-32.355469-55.839844c-4.167968 4.179687-1.554687 9.167968-.160156 10.605468l27.132813 27.957032c1.402343 1.445312 3.363281 2.277344 5.382812 2.277344h.070313c1.992187-.011719 3.960937-.859376 5.359375-2.328126l51.132812-53.699218c1.382813-1.453125 4.234375-6.082032-.257812-10.605469-2.917969-2.9375-7.753907-2.734375-10.605469.261719l-40.371094 42.398437c-1.410156 1.476563-3.355468 2.316407-5.398437 2.328125-2.015625-.023437-3.996094-.8125-5.417969-2.277344l-16.261719-16.757812c-1.46875-1.511719-6.4375-4.335938-10.605469-.160156zm0 0"/></svg>