<?xml version="1.0" encoding="iso-8859-1"?>
<!-- Generator: Adobe Illustrator 19.0.0, SVG Export Plug-In . SVG Version: 6.00 Build 0)  -->
<svg version="1.1" id="Capa_1" xmlns="http://www.w3.org/2000/svg" xmlns:xlink="http://www.w3.org/1999/xlink" x="0px" y="0px"
	 viewBox="0 0 512 512" style="enable-background:new 0 0 512 512;" xml:space="preserve">
<path style="fill:#FF9D7B;" d="M145.104,215.162c-0.797-8.493-1.151-17.023-2.521-25.456c-0.197-1.215-0.673-2.204-1.329-2.988
	c0.133-1.141,0.259-2.283,0.397-3.422c0.855-7.013,2.547-13.904,3.396-20.879c0.695-5.719-2.02-11.501-8.31-12.197
	c-5.983-0.662-9.345,4.299-10.414,9.512c-0.821,4.007-0.726,8.104-0.729,12.167c-0.002,2.27,0.326,4.892-0.202,7.099
	c-0.938,3.92-4.378,3.754-7.862,3.701c-1.41-0.022-2.825,0.485-3.997,1.329c-0.941-0.134-1.89-0.072-2.777,0.209
	c0.054-3.624-0.228-7.197-0.491-10.884c-0.179-2.492-0.188-4.985-0.465-7.448c0.24-4.386,0.856-9.019-0.906-13.137
	c-2.803-6.551-10.225-4.612-14.572-0.182c-0.477-0.526-1.404-0.708-1.77,0.083c-3.334,7.22-2.194,17.215-1.797,24.936
	c0.455,8.833,0.818,17.638,0.98,26.48c0.164,8.98,0.749,17.988,0.262,26.967c-0.358,6.605,2.521,9.955,8.889,11.736
	c2.15,0.602,4.421-0.412,5.574-2.269c2.324-3.741,2.175-7.783,1.473-11.993c-0.865-5.188-1.859-10.214-2.36-15.473
	c-0.128-1.354-0.241-2.707-0.354-4.061c3.031,1.665,5.67,0.688,7.841-1.518c0.304,0.032,0.616,0.054,0.942,0.059
	c1.25,0.021,2.358-0.149,3.352-0.465c1.771,1.066,3.908,1.443,6.057,0.895c0.365-0.093,0.719-0.204,1.072-0.313
	c-0.371,4.167-0.654,8.342-0.821,12.523c-0.228,5.736-1.648,11.878-0.06,17.518c2.208,7.841,9.09,11.7,16.943,9.533
	c3.577-0.987,5.258-3.999,5.654-7.427C147.146,231.6,145.87,223.325,145.104,215.162z"/>
<path style="fill:#FFEC8D;" d="M214.799,217.812c-0.988-8.576-2.648-17.041-3.83-25.589c-1.154-8.346-2.067-16.726-3.382-25.049
	c-0.153-0.969-0.274-1.986-0.398-3.02c0.244-0.614,0.406-1.281,0.45-1.998c0.059-0.972,0.113-1.944,0.174-2.916
	c0.018-0.285,0.037-0.569,0.057-0.854c0.069-0.301,0.141-0.602,0.215-0.902c0.595-2.444-0.217-4.958-2.217-6.503
	c-1.428-1.103-3.673-1.655-5.528-1.114c-4.276-2.107-10.429-1.173-14.798,0.75c-2.402-2.169-6.995-1.103-7.359,3.144
	c-0.156,1.847-0.371,3.693-0.623,5.54c-0.822,2.369-1.188,4.967-1.251,7.598c-2.347,12.228-6.118,24.389-9.169,36.254
	c-1.997,7.771-3.84,15.57-4.8,23.547c-0.542,4.505-1.034,9.805,2.35,13.4c4.257,4.524,11.602,2.608,14.813-2.142
	c2.797-4.136,2.836-9.707,3.18-14.521c0.287-4.016,1.162-8.337,2.482-12.805c0.104-0.008,0.209-0.021,0.313-0.029
	c1.755-0.138,3.518-0.113,5.275-0.127c1.473-0.012,2.932-0.06,4.385-0.13c0.255,4.559,0.053,9.177,0.705,13.705
	c0.84,5.821,2.063,11.366,4.434,16.762c3.055,6.955,12.008,3.472,14.242-1.862C217.189,232.58,215.561,224.423,214.799,217.812z"/>
<path style="fill:#3BD2D3;" d="M276.49,156.906c-3.693-3.234-8.561-5.825-13.295-4.576c-1.076-0.639-2.225-1.164-3.461-1.538
	c-1.81-0.549-4.098-0.291-5.85,0.694c-1.159-4.39-9.141-5.073-9.887,0.108c-2.432,16.885-4.118,33.791-5.064,50.822
	c-0.445,8.021-0.396,16.065-0.073,24.089c0.171,4.23,0.214,8.898,2.726,11.989c0.914,2.887,3.189,5.325,6.252,6.122
	c6.839,1.779,13.967-0.67,16.306-7.832c1.524-4.668,0.685-9.335,0.106-14.071c-0.068-0.563-0.021,0.348-0.111-1.081
	c-0.086-1.37-0.188-2.801-0.029-4.17c0.291-2.509,1.387-4.704,2.84-6.707c1.772-1.395,3.449-2.9,4.945-4.6
	c1.434-1.631,2.677-3.375,3.75-5.205c1.627-1.861,3.15-3.807,4.408-5.975C286.451,183.948,286.693,165.842,276.49,156.906z"/>
<path style="fill:#CEB4F7;" d="M352.391,185.569c-0.438-10.662-3.556-26.144-12.853-32.75c-4.187-2.975-13.281-5.443-19.141-3.694
	c-0.729-0.236-1.542-0.367-2.44-0.367c-6.692,0-8.709,7.266-6.046,11.644c-1.425,11.7-0.782,23.523-1.305,35.331
	c-0.306,6.901-0.946,13.782-1.491,20.667c-0.522,6.599-0.402,13.344-1.436,19.884c-0.75,4.752,1.896,9.037,7.033,9.232
	c6.264,0.239,12.021-1.68,14.102-8.151c1.968-6.117,0.852-14.05,0.996-20.371c0.004-0.218,0.023-0.47,0.044-0.727
	c1.333,0.069,2.725-0.242,4.081-1.063C345.087,208.445,352.947,199.166,352.391,185.569z"/>
<g>
	<path style="fill:#FC9A70;" d="M403.707,153.945c-4.047,3.571-5.535,9.317-7.713,14.089c-1.104,2.419-2.217,4.858-3.237,7.327
		c-3.513-5.793-6.308-11.994-10.148-17.705c-0.321-0.543-0.665-1.072-1.05-1.572c-0.01,0.007-0.019,0.015-0.027,0.021
		c-0.366-0.508-0.736-1.014-1.124-1.511c-1.629-2.09-3.909-2.613-6.094-2.142c-1.112-0.454-2.333-0.742-3.683-0.863
		c-4.79-0.429-6.57,5.099-4.968,8.658c0.536,1.193,1.309,2.141,2.227,3.014c0.38,0.947,0.536,2.003,0.849,3.098
		c0.797,2.781,1.933,5.189,3.933,7.319c0.433,0.459,0.895,0.815,1.368,1.122c0.625,2.208,1.3,4.378,2.38,6.25
		c3.257,5.646,8.243,10.407,12.691,15.11c0.068,0.072,0.144,0.134,0.215,0.203c-0.796,4.53-1.367,9.103-1.884,13.678
		c-1.721,1.927-2.652,4.607-1.988,7.821c0.26,1.254,0.421,2.509,0.503,3.762c-0.808,4.695-1.78,9.373-1.88,14.137
		c-0.178,8.422,12.768,12.677,16.592,4.494c3.83-8.196,4.004-17.402,2.165-26.167c0.386-6.535,0.833-13.061,2.124-19.494
		c1.254-6.242,2.965-12.812,5.486-18.673c2.436-5.663,5.713-10.321,6.011-16.698C416.774,152.353,408.271,149.919,403.707,153.945z"
		/>
	<path style="fill:#FC9A70;" d="M44.252,376.712c2.485-7.81,5.278-18.695-1.438-25.193c-0.159-0.155-0.33-0.3-0.505-0.44
		c-2.072-5.142-5.79-9.562-10.909-12.321c-9.279-5.002-21.016-4.315-23.863,7.593c-0.349,1.458-0.621,2.97-0.836,4.511
		c-0.139,0.322-0.269,0.649-0.379,0.984c-1.178,3.585-0.971,7.688-0.344,11.518c0,0.388-0.003,0.779-0.002,1.162
		c0.016,4.199,0.373,10.037,2.625,14.285c-0.021,0.457-0.039,0.913-0.064,1.368c-0.723,13.019-1.582,26.016-2.551,39.021
		c-0.418,5.59-0.396,11.353,5.139,14.59c4.032,2.358,9.517,2.064,13.875,0.896c9.426-2.525,16.096-11.494,18.656-20.553
		c2.572-9.099,0.51-18.623-4.507-26.389C41.098,384.196,42.987,380.68,44.252,376.712z"/>
</g>
<path style="fill:#FFEC8D;" d="M94.266,393.565c-0.729-8.955-1.566-18.042-1.416-27.036c0.111-6.641,1.405-16.137-3.723-21.384
	c-3.959-4.051-11.959-5.524-17.188-3.576c-6.767,2.521-6.462,8.676-5.74,14.677c0.785,6.522,0.775,12.945,0.971,19.517
	c0.304,10.144,1.221,20.254,2.244,30.348c0.133,1.313,0.494,2.569,1.051,3.695c0.255,4.676,0.73,9.334,2.058,13.845
	c1.079,3.666,5.624,7.081,9.583,5.441c3.52-1.458,7.373-2.357,10.121-5.176c2.627-2.694,3.74-6.397,3.955-10.072
	C96.594,406.833,94.825,400.428,94.266,393.565z"/>
<path style="fill:#74DEDA;" d="M158.777,401.348c-3.044-6.292-10.177-14.324-9.453-21.688c0.38-3.858,2.648-7.573,3.711-11.28
	c1.277-4.451,1.701-9.071,0.703-13.625c-1.65-7.534-7.113-12.894-14.812-13.878c-6.038-0.771-11.991,1.113-16.474,4.974
	c-2.139-0.128-4.354,1.263-4.65,4.213c-0.059,0.585-0.109,1.171-0.168,1.757c-2.719,4.995-3.514,11.046-3.881,16.62
	c-0.342,5.184-0.078,10.979,1.879,15.961c-0.087,5.264-0.051,10.528,0.179,15.786c0.274,6.308,0.733,12.642,1.255,18.934
	c0.488,5.899,1.586,11.141,6.67,14.743c3.468,2.457,8.496,0.523,10.547-2.766c3.236-5.19,3.467-11.291,3.637-17.231
	c0.016-0.57,0.051-1.135,0.082-1.701c0.755,1.204,1.491,2.417,2.176,3.656c3.224,5.835,5.5,11.415,11.063,15.488
	c4.881,3.573,10.607-0.542,12.435-5.059C166.877,418.34,162.219,408.463,158.777,401.348z M137.645,358.258
	c-1.313-0.292-2.711-0.284-4.086-0.011c0.061-0.051,0.116-0.109,0.181-0.157C135.779,356.585,137.006,357.032,137.645,358.258z"/>
<path style="fill:#CEB4F7;" d="M227.506,355.871c1.684-3.581,1.83-7.759-0.2-11.193c2.119-3.527,0.492-9.195-4.927-9.313
	c-7.557-0.164-15.244,1.576-22.791,2.146c-5.867,0.443-12.652,0.239-18.354,1.882c-15.375,4.43-9.174,25.53,4.623,27.043
	c2.791,0.306,5.668,0.214,8.558,0.044c-0.048,1.994,0.046,3.979,0.185,5.992c0.483,7.006,0.166,14.042,0.111,21.061
	c-0.05,6.155-0.019,12.323-0.384,18.469c-0.306,5.149-0.333,10.83,2.419,15.387c3.406,5.639,11.076,5.243,14.564,0
	c3.545-5.329,2.576-12.651,3.008-18.751c0.65-9.193-0.09-18.424-0.829-27.589c-0.062-0.761-0.419-6.964-0.669-10.106
	c0.084,0.004,0.168,0.005,0.252,0.01c5.41,0.191,10.854-0.299,14.609-4.754C230.888,362.394,230.017,358.309,227.506,355.871z"/>
<path style="fill:#FFEC8D;" d="M302.592,361.429c-0.141-6.493-0.162-13.701-2.223-19.914c-2.391-7.213-14.551-8.697-16.158,0
	c-1.286,6.956-0.354,13.879-1.27,20.813c-0.092,0.7-0.201,1.611-0.425,2.374c-0.901,0.42-3.335,0.967-4.527,1.169
	c-2.536,0.432-5.217,0.125-7.854,0.013c-0.092-2.002-0.178-4.003-0.268-6.001c-0.299-6.605,0.561-14.456-1.717-20.753
	c-1.921-5.316-8.741-6.642-12.092-2.794c-2.633-1.182-6.199-0.447-6.689,2.958c-2.301,15.951-2.547,32.883-1.62,48.962
	c0.427,7.402,0.979,14.698,0.851,22.113c-0.117,6.675,0.307,12.96,3.072,19.109c2.308,5.131,9.764,4.155,12.336,0
	c2.994-4.836,2.548-10.661,1.955-16.076c-0.755-6.898-0.859-13.897-0.951-20.843c0.855,0.73,1.889,1.25,3.104,1.434
	c3.152,0.478,7.063,1.264,10.27,0.941c0.434-0.044,0.748,0.033,0.955,0.122c0.412,1.214,0.417,2.986,0.559,4.122
	c0.838,6.772,1.982,13.652,2.573,20.514c-0.163,3.56-0.112,7.118,0.726,10.329c2.616,10.033,18.979,8.238,18.404-2.491
	c-0.084-1.58-0.225-3.15-0.4-4.716c0.112-1.649,0.441-3.548,0.462-4.974c0.054-3.74,0.036-7.479,0.046-11.219
	c0.021-7.489,0.141-14.974,0.418-22.458C302.405,376.589,302.755,369.01,302.592,361.429z"/>
<path style="fill:#FF9D7B;" d="M366.875,378.462c-0.612-5.813-2.441-11.428-5.244-16.527c-0.23-2.175-0.598-4.315-1.254-6.356
	c-1.461-4.54-4.634-7.981-7.954-11.279c-2.903-2.884-6.325-2.303-8.626-0.304c-4.436-2.312-9.344-3.526-14.123-2.236
	c-0.012-0.03-0.021-0.06-0.031-0.09c-2.363-6.09-11.051-3.812-9.832,2.71c1,5.347-0.956,11.512-1.063,16.951
	c-0.138,6.994,0.028,14.002-0.053,20.999c-0.163,14.053-0.926,28.09,1.3,42.026c0.877,5.491,8.227,7.404,12.408,4.508
	c1.436,0.427,2.939,0.468,4.275-0.05c3.517-1.365,6.576-3.274,9.287-5.563c1.058-0.559,2.084-1.176,3.069-1.865
	c4.425-3.094,8.011-7.082,10.872-11.656C365.629,400.582,368.002,389.147,366.875,378.462z M350.075,389.11
	c-0.108,0.68-0.245,1.368-0.396,2.059c-1.371,0.627-2.63,1.755-3.605,3.491c-2.051,3.646-4.505,9.315-7.767,13.487
	c-0.029-4.261-0.127-8.525-0.097-12.788c0.087-12.162,0.088-24.253,0.419-36.38c0.086,0.066,0.164,0.128,0.23,0.18
	c2.592,2.022,4.686,4.534,6.445,7.296C349.649,373.272,351.354,381.098,350.075,389.11z"/>
<path style="fill:#E0C0A0;" d="M426.861,397.856c-1.463-8.756-2.848-17.354-3.185-26.247c-0.327-8.645,0.675-17.667-1.94-26.083
	c-2.186-7.029-7.947-7.282-14.195-6.358c-6.41,0.948-13.023,1.12-15.618,8.188c-1.026,2.798-1.089,5.818-1.38,8.753
	c-0.445,4.491-1.17,8.972-1.783,13.443c-1.267,9.227-2.662,18.411-4.465,27.548c-1.593,8.068-4.293,17.256-3.832,25.505
	c0.49,8.811,11.424,9.507,14.578,1.973c2.365-5.65,3-11.68,4.145-17.654c0.525-2.742,1.096-5.475,1.695-8.201
	c0.482,0.293,1.04,0.512,1.684,0.627c3.207,0.572,5.83,0.29,8.719-0.402c0.473,2.081,1.232,4.748,1.359,5.337
	c0.711,3.276,1.555,6.493,1.846,9.833c0.264,3.019,0.305,5.981,1.339,8.872c2.03,5.672,12.384,7.471,13.401,0
	C430.375,414.586,428.244,406.144,426.861,397.856z"/>
<path style="fill:#74DEDA;" d="M482.713,343.771c-5.139,5.283-7.922,12.014-10.959,18.61c-0.615,1.337-1.182,2.696-1.763,4.048
	c-0.018-0.024-0.035-0.051-0.052-0.074c-1.8-2.479-3.767-4.843-5.594-7.303c-3.963-5.334-7.005-11.331-11.323-16.392
	c-4.012-4.701-10.988,1.297-8.271,6.382c4.021,7.783,7.643,15.472,12.436,22.826c2.335,3.584,4.773,8.947,8.354,11.772
	c-0.328,1.295-0.653,2.594-0.975,3.898c-1.728,6.988-3.354,13.984-4.383,21.115c-0.959,6.642-2.412,13.573-1.021,20.226
	c1.783,8.53,13.012,7.14,15.894,0.414c2.792-0.906,5.038-3.206,4.772-6.666c-0.334-4.336-0.07-8.697-1.26-12.928
	c-0.416-1.479-1.23-2.684-2.264-3.616c0.792-6.095,1.986-12.152,3.227-18.165c1.342-6.499,3.223-12.726,6.215-18.663
	c3.096-6.142,6.404-12.104,8.953-18.508C497.436,343.875,487.407,338.942,482.713,343.771z"/>
<g>
	<path style="fill:#F95252;" d="M496.123,279.332c-1.238-1.087-2.689-1.786-4.185-2.062c-0.149-0.351-0.308-0.7-0.5-1.037
		c-1.11-1.954-4.165-2.006-5.262,0c-0.649,1.188-1.104,2.428-1.56,3.671c-2.135,2.274-3.388,4.961-4.184,7.832
		c-0.827,1.236-1.666,2.464-2.463,3.715c-3.476,5.457-5.951,11.28-6.797,17.732c-1.313,10.025,3.529,24.748,16.542,21.547
		c9.218-2.268,14.669-14.469,16.417-22.856C506.297,297.495,504.383,286.577,496.123,279.332z"/>
	<path style="fill:#F95252;" d="M419.796,285.597c-0.132-0.569-0.324-1.072-0.556-1.525c-0.743-2.252-1.718-4.419-2.961-6.432
		c-0.744-1.203-1.724-2.063-2.818-2.591c0.962-2.116-0.83-5.155-3.427-4.22c-4.235,1.523-6.107,4.876-8.497,8.431
		c-3.668,5.456-7.772,10.616-10.09,16.84c-3.421,9.185-2.318,25.175,9.281,28.425c4.156,1.165,7.673-0.941,10.514-4.119
		c1.327,0.351,2.798,0.217,4.187-0.604C426.857,313.047,422.193,295.935,419.796,285.597z"/>
	<path style="fill:#F95252;" d="M348.807,285.98c-1.143-2.713-2.849-4.45-5.537-5.029c0.163-0.269,0.312-0.543,0.482-0.81
		c2.52-3.929-3.393-8.62-6.533-5.042c-6.896,7.852-12.105,18.492-14.831,28.571c-2.386,8.821-1.218,23.118,10.526,23.931
		c8.688,0.602,15.938-7.292,17.9-15.131C352.916,304.089,352.159,293.949,348.807,285.98z"/>
	<path style="fill:#F95252;" d="M267.999,289.834c-0.782-3.198-2.77-6.106-5.267-7.997c1.625-3.625-3.605-7.006-6.618-4.176
		c-5.919,5.558-13.58,8.461-15.755,17.141c-1.982,7.91,1.705,17.47,8.179,22.24c6.911,5.091,17.152,4.484,19.663-4.955
		C269.905,305.68,269.551,296.178,267.999,289.834z"/>
	<path style="fill:#F95252;" d="M200.543,272.872c-3.17-0.814-6.721,0.533-8.375,3.408c-1.117,1.94-2.119,4.563-2.879,7.517
		c-3.955,5.515-6.688,12.427-7.252,18.125c-1.006,10.131,4.752,23.848,16.628,24.14c13.199,0.324,14.052-15.319,14.044-24.886
		C212.701,292.109,211.484,275.684,200.543,272.872z"/>
	<path style="fill:#F95252;" d="M146.772,290.017c-1.285-5.274-4.925-12.394-10.175-14.391c0.059-2.076-1.283-4.129-3.841-4.006
		c-6.339,0.306-10.241,7.892-13.081,12.757c-4.512,7.729-6.844,15.913-5.164,24.813c1.404,7.44,6.012,15.184,13.379,17.987
		c9.523,3.623,14.918-5.656,17.629-13.216C148.203,306.472,148.654,297.746,146.772,290.017z"/>
	<path style="fill:#F95252;" d="M89.33,293.14c-0.414-4.536-1.407-8.21-3.952-11.84c0.208-0.368,0.413-0.737,0.624-1.104
		c3.129-5.417-4.85-9.914-8.297-4.85c-6.002,8.817-11.029,18.316-12.152,29.072c-0.793,7.591-0.165,22.853,10.286,23.588
		c9.667,0.681,13.667-13.674,14.132-21.058C90.252,302.468,89.74,297.619,89.33,293.14z"/>
	<path style="fill:#F95252;" d="M36.737,289.285c0.15-6.663-1.431-13.787-3.473-17.677c-1.321-2.517-3.747-3.539-6.214-3.477
		c-1.955-2.659-6.855-3.518-8.473,0.116c-3.729,8.381-8.643,16.478-10.739,25.489c-2.013,8.648-0.73,17.101,3.45,24.915
		c3.883,7.258,11.865,10.782,18.437,4.399c5.607-5.446,8.571-15.012,8.483-22.559C38.168,296.984,37.66,293.105,36.737,289.285z"/>
	<path style="fill:#F95252;" d="M113.285,104.433c-1.013-3.713-3.756-5.285-6.569-5.248c-0.886-1.294-1.962-2.4-3.189-3.193
		c1.843-1.895,1.08-5.767-2.177-5.619c-7.084,0.322-13.008,7.895-17.126,13.018c-4.966,6.178-4.641,13.169-1.687,20.201
		c2.567,6.11,7.396,12.489,14.594,12.875c6.386,0.342,10.033-4.225,11.668-9.606c1.059-0.911,2-2.008,2.77-3.221
		C115.439,117.539,115.119,111.149,113.285,104.433z"/>
	<path style="fill:#F95252;" d="M198.665,84.66c-0.453-0.445-0.944-0.801-1.455-1.09c-0.112-2.318-3.063-4.374-5.276-2.92
		c-5.619,3.691-9.382,8.938-12.756,14.683c-3.129,5.325-5.947,10.863-6.025,17.168c-0.127,10.256,7.314,24.436,19.161,24.049
		c10.589-0.346,13.194-13.12,14.036-21.442C207.377,104.966,206.33,92.187,198.665,84.66z"/>
	<path style="fill:#F95252;" d="M274.142,109.939c-0.501-7.96-2.192-19.49-8.077-25.629c-2.265-2.362-4.698-3.135-7.03-2.863
		c-0.923-0.456-2.032-0.377-2.944,0.7c-0.096,0.112-0.188,0.231-0.281,0.343c-2.975,1.574-5.516,4.634-6.924,7.82
		c-0.49,1.107-0.938,2.224-1.35,3.347c-2.807,4.322-5.313,8.843-7.276,13.362c-4.155,9.558-2.033,18.683,5.518,25.795
		c5.964,5.617,14.405,12.241,21.53,4.397C273.795,130.068,274.717,119.071,274.142,109.939z"/>
	<path style="fill:#F95252;" d="M340.145,93.449c-1.268-4.061-3.373-9.031-7.216-11.168c0.278-3.368-4.36-5.359-6.736-2.103
		c-0.524,0.718-1.054,1.433-1.581,2.15c-2.99,1.695-4.963,5.102-6.295,8.547c-2.189,2.985-4.363,5.982-6.469,9.022
		c-3.895,5.62-6.802,11.638-5.686,18.626c1.797,11.254,17.271,28.625,28.851,17.745C345.869,126.067,344.143,106.233,340.145,93.449
		z"/>
	<path style="fill:#F95252;" d="M422.127,92.977c-1.943-2.965-4.627-5.415-8.109-5.283c-0.333-2.058-2.959-3.669-4.595-1.673
		c-2.612,3.187-3.713,7.149-5.511,10.815c-2.405,4.905-5.364,9.556-7.642,14.516c-2.917,6.353-4.574,14.031-1.022,20.515
		c3.763,6.868,13.375,10.315,20.688,7.659c8.075-2.935,11.824-12.625,13.066-20.458C430.472,109.803,427.158,100.66,422.127,92.977z
		"/>
</g>
<path d="M150.564,151.598c0.035-1.937-1.48-4.17-3.469-4.557c-7.215-1.403-14.064-1.347-21.221,0.37
	c-1.998,0.479-3.276,2.436-3.35,4.4c-0.229,6.104-0.545,12.188-0.927,18.285c-0.104,1.676,0.47,6.849-0.507,8.126
	c-0.698,0.913-2.646,1.06-4.619,0.959c0.385-10.498,0.492-21.016,0.74-31.516c0.059-2.461-2.158-4.65-4.609-4.61
	c-3.277,0.055-6.561,0.212-9.828,0.519c0.143-1.473,0.217-2.942,0.254-4.408c7.41-0.021,13.233-12.473,14.078-18.343
	c1.963-13.646-6.479-23.48-12.74-34.571c-1.041-1.845-3.857-2.29-5.331-0.687c-5.054,5.498-11.089,9.582-16.347,14.781
	c-4.43,4.379-6.53,9.84-5.34,16.059c1.828,9.541,9.373,23.222,20.313,20.684c0.153,2.352,0.166,4.719,0.014,7.11
	c-3.617,0.533-7.201,1.273-10.713,2.316c-1.724,0.512-3.398,2.317-3.23,4.242c0.271,3.126,0.504,6.255,0.723,9.384
	c-0.205,27.542,1.039,55.076,1.956,82.603c0.083,2.505,1.976,4.31,4.448,4.449c5.395,0.303,10.918,0.991,16.318,0.916
	c3.748-0.052,6.656-1.724,7.416-5.619c0.913-4.685-0.646-10.726-1.045-15.466c-0.379-4.517-0.758-9.032-1.14-13.548
	c2.542-0.185,5.085-0.348,7.632-0.456c-0.367,11.359-0.14,22.745,0.42,34.09c0.118,2.389,2.021,4.753,4.615,4.614
	c5.36-0.287,10.794-0.525,16.131-1.116c3.479-0.385,6.512-1.685,7.496-5.364c1.038-3.881,0.348-8.849,0.398-12.858
	c0.072-5.524,0.128-11.047,0.204-16.571C149.602,194.408,150.188,173.003,150.564,151.598z M87.887,124.528
	c-2.383-4.349-5.187-10.826-2.896-15.615c1.829-3.823,5.954-6.37,9.169-8.929c2.654-2.113,5.088-4.402,7.334-6.891
	c4.928,5.913,8.835,13.61,9.314,21.143c0.231,3.629-0.357,7.393-1.941,10.683c-0.578,1.2-3.971,6.37-6.076,7.188
	c-0.335-3.535-0.985-7.054-1.981-10.563c-1.079-3.8-7.159-2.103-5.904,1.627c1,2.97,1.722,5.953,2.199,8.957
	C92.967,131.513,90.006,128.395,87.887,124.528z M140.604,205.457c-0.07,6.733-0.209,13.465-0.359,20.196
	c-0.068,3.065-0.214,6.129-0.043,9.185c0.102,1.815,0.861,4.081-0.467,5.685c-1.921,2.321-7.775,1.497-10.391,1.667
	c-0.715-11.108-0.975-22.211-1.033-33.35c-0.012-2.085-1.852-4.201-4.055-4.056c-5.506,0.362-10.99,0.386-16.504,0.398
	c-2.203,0.005-4.504,1.981-4.322,4.323c0.637,8.245,1.301,16.487,1.953,24.731c0.113,1.439,0.602,3.374,0.604,4.973
	c-0.963-0.058-1.927-0.116-2.89-0.174c-2.667-0.161-5.334-0.322-8-0.483c-0.765-15.102-1.467-30.211-2.378-45.306
	c0.054-12.929-0.315-25.857-0.221-38.787c5.132-0.851,10.245-1.57,15.424-1.942c-0.153,10.17-0.386,20.349-0.294,30.516
	c0.021,2.495,1.984,4.161,4.352,4.354c6.43,0.521,15.211,0.178,17.018-7.312c0.996-4.125,0.826-8.803,1.176-13.026
	c0.312-3.768,0.681-7.522,1.068-11.277c3.267-0.395,6.562-0.437,9.832-0.106C140.935,172.262,140.779,188.859,140.604,205.457z"/>
<path d="M221.219,230.614c-2.034-13.926-3.949-27.869-5.879-41.809c-0.941-6.802-1.883-13.604-2.825-20.407
	c-0.519-3.741-1.036-7.482-1.554-11.223c-0.365-2.633-0.316-5.722-1.478-8.161c-2.212-4.651-8.438-3.963-12.712-4.019
	c-0.636-0.009-1.275-0.012-1.916-0.015c0.201-2.318,0.233-4.607,0.123-6.878c9.891-3.989,15.639-13.875,16.272-24.467
	c0.888-14.806-7.907-26.904-14.411-39.375c-1.314-2.521-4.722-2.076-6.138,0c-8.175,11.988-21.799,21.392-22.493,37.054
	c-0.566,12.795,7.154,28.51,21.121,27.979c0.221,1.899,0.348,3.811,0.354,5.74c-4.848,0.13-9.719,0.532-14.393,1.561
	c-1.871,0.412-3.213,2.377-3.221,4.229c-0.006,1.941-0.121,3.894-0.282,5.849c-5.036,27.134-9.872,54.304-14.586,81.496
	c-0.558,3.221,1.286,5.519,4.481,5.883c6.304,0.72,12.609,1.426,18.914,2.138c1.898,0.214,4.252-1.621,4.592-3.497
	c1.583-8.737,2.717-17.542,3.305-26.4c1.557-0.103,3.115-0.183,4.676-0.251c1.514,8.485,2.178,16.993,2.189,25.646
	c0.002,2.801,2.211,4.522,4.8,4.801c5.481,0.589,12.464,0.259,17.281-2.754C222.404,240.625,221.971,235.758,221.219,230.614z
	 M177.998,102.805c3.785-7.872,11.367-13.183,16.229-20.292c5.588,7.867,10.059,17.065,10.475,26.699
	c0.369,8.539-3.181,17.079-10.76,21.027c-0.623-2.793-1.509-5.571-2.691-8.345c-1.382-3.238-7.045-0.901-5.745,2.422
	c1.194,3.053,2.15,6.155,2.854,9.298C176.484,131.39,173.457,112.246,177.998,102.805z M212.405,233.883
	c-0.374,2.605-1.501,2.6-4.338,3.014c-1.084,0.159-2.169,0.211-3.253,0.22c-0.425-9.032-1.744-17.986-3.826-26.796
	c-0.409-1.728-2.388-3.389-4.232-3.222c-4.121,0.374-8.186,0.842-12.324,0.959c-2.543,0.072-3.98,1.926-4.287,4.288
	c-1.045,7.992-2.206,15.962-3.502,23.917c-3.225-0.326-6.447-0.651-9.67-0.976c3.793-25.068,7.481-50.153,11.001-75.261
	c0.482-1.675,1-3.333,1.571-4.964c4.382-0.25,8.758-0.707,13.152-0.819c2.549-0.064,5.663,0.483,8.146,0.015
	c0.246,0.04,0.449,0.067,0.65,0.095c0.055,0.383,0.109,0.767,0.164,1.149c-0.385,2.294,0.809,5.842,1.13,8.163
	c0.376,2.721,0.753,5.441,1.13,8.162c0.707,5.102,1.412,10.203,2.119,15.305c1.412,10.203,2.825,20.407,4.238,30.61
	c0.367,2.659,0.729,5.317,1.074,7.979C211.662,228.11,212.744,231.51,212.405,233.883z"/>
<path d="M195.785,172.992c-0.353-0.993-1.17-1.761-2.134-2.22c-1.233-1.259-3.589-1.326-4.46,0.57
	c-0.348,0.416-0.603,0.954-0.701,1.65c-0.063,0.447-0.113,0.893-0.169,1.339c-1.669,6.113-3.338,12.227-5.008,18.34
	c-0.502,1.839,0.624,3.681,2.405,4.236c3.752,1.17,7.539,1.758,11.47,1.779c1.852,0.01,4.016-1.743,3.766-3.766
	C200.013,187.301,198.354,180.224,195.785,172.992z"/>
<path d="M346.979,154.739c-4.73-4.336-11.323-7.51-18.221-8.937c0.02-0.813,0.027-1.632,0.03-2.455
	c13.263-0.562,21.184-14.946,20.942-28.018c-0.297-16.196-8.761-30.865-20.506-41.556c-1.957-1.782-4.645-0.893-5.541,1.463
	c-2.736,7.197-6.695,13.201-11.303,19.331c-4.012,5.338-9.224,11.028-10.262,17.864c-1.127,7.421,2.582,14.602,7.402,19.99
	c1.973,2.205,4.185,4.202,6.59,5.926c1.158,0.832,6.29,2.947,6.247,4.489c-0.072,2.566-11.134,3.476-13.056,4.281
	c-1.647,0.69-2.842,1.885-2.875,3.775c-0.17,9.95-0.66,20.232-0.463,30.397c-0.451,6.642-0.875,13.285-1.357,19.915
	c-0.582,7.991-1.131,15.981-1.613,23.978c-0.457,7.529-1.151,15.079,0.738,22.473c0.526,2.057,2.707,3.824,4.879,3.714
	c7.292-0.369,18.555-0.683,24.744-5.047c6.332-4.464,2.156-16.658,1.476-22.969c-0.198-1.834-0.772-3.376,0.665-4.917
	c0.981-1.051,3.855-1.529,5.192-2.209c2.704-1.377,5.215-3.314,7.241-5.567c4.24-4.718,6.848-10.801,8.159-16.96
	C358.916,180.428,357.516,164.399,346.979,154.739z M312.897,125.582c-4.267-6.715-4.923-12.585-0.47-19.323
	c5.34-8.079,12.537-15.517,16.162-24.613c7.953,7.035,12.888,17.397,13.828,27.955c0.877,9.831-2.688,25.373-13.859,27.184
	c-0.241-3.056-0.695-6.08-1.479-8.969c-1.123-4.138-6.964-2.327-6.298,1.736c0.305,1.855,0.621,3.685,0.93,5.51
	C318.286,132.393,315.193,129.195,312.897,125.582z M346.389,196.235c-1.639,4.963-4.607,9.876-9.409,12.296
	c-4.593,2.315-9.884,3.116-11.141,9c-0.594,2.78,0.015,5.894,0.208,8.691c0.234,3.374,0.057,7.197,0.738,10.516
	c-0.209,0.846-0.271,1.404-0.197,1.694c-0.186,0.071-0.391,0.151-0.617,0.241c-1.848,0.45-3.648,0.992-5.512,1.385
	c-2.531,0.533-5.055,0.836-7.6,1.011c-0.718-5.95-0.311-11.961-0.113-17.97c0.264-7.992,0.438-15.983,0.602-23.978
	c0.306-14.788,0.914-29.611,0.777-44.404c9.844-0.219,19.647,0.037,27.355,7.457C350.079,170.451,349.895,185.617,346.389,196.235z"
	/>
<path d="M327.726,168.644c-0.854,0.294-1.683,0.898-2.468,1.882c-1.197,1.504-1.253,3.589-1.255,5.512
	c-0.005,6.246-0.138,12.292-0.896,18.478c-0.33,2.771,2.754,4.154,4.96,3.778c7.872-1.338,13.085-5.63,12.927-14.079
	C340.912,179.926,333.746,166.569,327.726,168.644z"/>
<path d="M278.014,154.739c-4.73-4.336-11.323-7.51-18.221-8.937c0.02-0.813,0.028-1.632,0.03-2.455
	c13.263-0.562,21.184-14.946,20.942-28.018c-0.297-16.196-8.76-30.865-20.506-41.556c-1.956-1.782-4.645-0.893-5.541,1.463
	c-2.736,7.197-6.695,13.201-11.303,19.331c-4.012,5.338-9.224,11.028-10.262,17.864c-1.152,7.584,2.736,14.904,7.721,20.341
	c2.143,2.337,12.162,7.012,9.738,10.629c-2.668,3.981-13.039,0.97-13.15,7.492c-0.17,9.95-0.66,20.232-0.463,30.397
	c-0.451,6.642-0.875,13.285-1.357,19.915c-0.582,7.991-1.131,15.981-1.614,23.978c-0.456,7.529-1.149,15.079,0.739,22.473
	c0.526,2.057,2.707,3.824,4.879,3.714c7.292-0.369,18.555-0.683,24.744-5.047c6.332-4.464,2.156-16.658,1.476-22.969
	c-0.198-1.834-0.772-3.376,0.665-4.917c0.98-1.051,3.856-1.529,5.191-2.209c2.705-1.377,5.216-3.314,7.242-5.567
	c4.24-4.718,6.848-10.801,8.159-16.96C289.951,180.428,288.551,164.399,278.014,154.739z M243.933,125.582
	c-4.267-6.715-4.923-12.585-0.47-19.323c5.34-8.079,12.537-15.517,16.161-24.613c7.953,7.035,12.889,17.397,13.829,27.955
	c0.877,9.831-2.688,25.373-13.859,27.184c-0.241-3.056-0.695-6.08-1.479-8.969c-1.123-4.138-6.964-2.327-6.298,1.736
	c0.305,1.855,0.621,3.685,0.93,5.51C249.321,132.393,246.229,129.195,243.933,125.582z M277.424,196.235
	c-1.639,4.963-4.607,9.876-9.41,12.296c-4.593,2.315-9.883,3.116-11.14,9c-0.595,2.78,0.015,5.894,0.208,8.691
	c0.234,3.374,0.057,7.197,0.738,10.516c-0.209,0.846-0.271,1.404-0.197,1.694c-0.186,0.071-0.391,0.151-0.617,0.241
	c-1.848,0.45-3.648,0.992-5.513,1.385c-2.53,0.533-5.054,0.836-7.599,1.011c-0.718-5.95-0.311-11.961-0.113-17.97
	c0.264-7.992,0.438-15.983,0.602-23.978c0.306-14.788,0.914-29.611,0.776-44.404c9.845-0.219,19.649,0.037,27.356,7.457
	C281.114,170.451,280.93,185.617,277.424,196.235z"/>
<path d="M258.761,168.644c-0.854,0.294-1.684,0.898-2.468,1.882c-1.197,1.504-1.254,3.589-1.255,5.512
	c-0.005,6.246-0.139,12.292-0.896,18.478c-0.33,2.771,2.754,4.154,4.959,3.778c7.873-1.338,13.087-5.63,12.927-14.079
	C271.947,179.926,264.781,166.569,258.761,168.644z"/>
<path d="M434.978,115.251c-0.134-15.755-11.979-30.061-24.904-37.882c-2.616-1.583-5.288,0.535-5.578,3.201
	c-1.565,14.364-13.389,25.183-14.672,39.705c-0.901,10.213,5.022,21.332,15.768,21.83c-0.212,2.092-0.479,4.179-0.833,6.262
	c-0.704-0.015-1.406-0.027-2.108-0.034c-2.052-0.02-3.449,1.38-4.146,3.156c-1.943,4.953-3.838,9.932-5.824,14.872
	c-2.617-5.021-5.02-10.158-7.072-15.421c-0.697-1.786-2.189-3.316-4.264-3.246c-6.097,0.208-12.199,0.358-18.292,0.681
	c-3.843,0.204-4.961,4.408-3.296,6.791c1.684,6.738,4.445,13.367,7.674,19.492c3.504,6.651,8.648,12.267,12.143,18.864
	c3.392,6.404,0.791,15.567,0.145,22.426c-0.832,8.836-1.936,17.695-2.421,26.556c-0.137,2.498,2.359,5.098,4.897,4.898
	c5.053-0.398,10.117-0.77,15.135-1.498c3.577-0.52,7.625-0.866,9.836-4.141c1.954-2.896,1.097-6.796,0.8-9.998
	c-0.507-5.452-1.008-10.904-1.518-16.355c-0.481-5.135-1.942-11.155-0.587-16.226c1.16-4.346,3.397-8.53,5.187-12.64
	c4.354-10.002,8.753-19.985,13.132-29.977c1.061-2.424,0.365-5.493-2.538-6.236c-3.546-0.908-7.185-1.403-10.843-1.68
	c0.271-1.161,0.514-2.327,0.739-3.496C425.18,142.719,435.094,128.762,434.978,115.251z M395.941,126.575
	c-1.086-6.295,1.375-12.676,4.225-18.16c3.82-7.35,8.239-14.043,10.498-21.819c8.998,6.404,16.738,15.634,16.719,27.189
	c-0.016,9.864-6.408,17.955-14.637,22.582c0.144-1.852,0.222-3.711,0.205-5.579c-0.037-4.314-6.576-4.306-6.693,0
	c-0.063,2.298-0.156,4.587-0.303,6.868C400.69,136.596,396.861,131.909,395.941,126.575z M414.445,157.939
	c-2.936,6.914-5.869,13.827-8.803,20.74c-3.021,7.117-7.945,14.915-8.51,22.767c-0.66,9.209,1.245,19.086,2.002,28.275
	c0.153,1.859,0.66,4.277,0.505,6.134c-0.04,0.315-0.062,0.562-0.07,0.764c-1.134,0.222-2.276,0.402-3.429,0.516
	c-2.836,0.345-5.656,0.528-8.483,0.571c0.808-7.238,1.376-14.515,2.073-21.757c0.708-7.355,2.764-15.858,0.063-23.018
	c-2.645-7.009-8.494-12.504-12.537-18.708c-3.656-5.608-6.64-11.455-9.438-17.46c3.509-0.035,7.019-0.106,10.527-0.172
	c3.019,7.622,6.606,14.84,11.144,21.743c2.11,3.209,6.538,2.451,7.813-1.021c2.509-6.828,5.335-13.535,8.129-20.252
	C408.451,157.246,411.447,157.577,414.445,157.939z"/>
<path d="M308.307,336.895c0.033-1.937-1.48-4.17-3.47-4.557c-7.215-1.402-14.063-1.347-21.22,0.37
	c-1.999,0.479-3.277,2.436-3.351,4.399c-0.229,6.104-0.545,12.188-0.927,18.285c-0.104,1.676,0.471,6.849-0.507,8.126
	c-0.698,0.913-2.647,1.06-4.618,0.959c0.384-10.498,0.491-21.016,0.74-31.516c0.059-2.462-2.159-4.65-4.609-4.609
	c-3.277,0.055-6.561,0.212-9.828,0.519c0.143-1.473,0.217-2.942,0.253-4.408c7.411-0.021,13.233-12.473,14.078-18.343
	c1.964-13.646-6.479-23.48-12.739-34.571c-1.041-1.845-3.857-2.29-5.331-0.688c-5.054,5.498-11.089,9.582-16.347,14.781
	c-4.43,4.379-6.531,9.84-5.34,16.059c1.827,9.541,9.373,23.222,20.312,20.684c0.153,2.352,0.166,4.719,0.014,7.11
	c-3.617,0.533-7.2,1.273-10.714,2.316c-1.723,0.512-3.396,2.317-3.229,4.242c0.272,3.126,0.505,6.255,0.724,9.384
	c-0.205,27.542,1.039,55.076,1.955,82.603c0.084,2.505,1.976,4.31,4.449,4.449c5.394,0.303,10.917,0.991,16.316,0.916
	c3.75-0.052,6.657-1.724,7.418-5.619c0.912-4.685-0.646-10.726-1.045-15.466c-0.379-4.517-0.758-9.032-1.141-13.548
	c2.543-0.185,5.084-0.348,7.631-0.456c-0.366,11.359-0.139,22.745,0.422,34.09c0.117,2.389,2.02,4.753,4.614,4.614
	c5.36-0.287,10.794-0.525,16.132-1.116c3.479-0.385,6.511-1.685,7.495-5.364c1.038-3.881,0.349-8.849,0.399-12.858
	c0.07-5.524,0.127-11.048,0.203-16.571C307.344,379.706,307.929,358.301,308.307,336.895z M245.629,309.826
	c-2.384-4.349-5.188-10.826-2.896-15.615c1.829-3.823,5.953-6.37,9.17-8.929c2.653-2.113,5.087-4.402,7.334-6.891
	c4.927,5.913,8.834,13.61,9.314,21.143c0.23,3.629-0.357,7.393-1.941,10.683c-0.579,1.2-3.973,6.37-6.076,7.188
	c-0.335-3.535-0.986-7.054-1.982-10.563c-1.078-3.8-7.158-2.103-5.904,1.627c1,2.97,1.721,5.953,2.199,8.957
	C250.708,316.811,247.748,313.693,245.629,309.826z M298.346,390.755c-0.096,8.978-0.307,17.952-0.514,26.928
	c-0.075,3.314,1.117,7.712-2.473,9.418c-0.908,0.432-8.258,0.657-8.275,0.383c-0.715-11.107-0.973-22.209-1.032-33.348
	c-0.011-2.085-1.851-4.201-4.056-4.056c-5.504,0.362-10.989,0.387-16.502,0.398c-2.204,0.005-4.504,1.98-4.322,4.323
	c0.637,8.245,1.301,16.487,1.952,24.731c0.114,1.439,0.603,3.374,0.604,4.973c-0.963-0.058-1.926-0.116-2.89-0.174
	c-2.667-0.161-5.333-0.322-8-0.483c-0.765-15.102-1.467-30.211-2.378-45.306c0.055-12.929-0.314-25.857-0.221-38.787
	c5.132-0.851,10.244-1.57,15.425-1.942c-0.154,10.17-0.386,20.35-0.296,30.516c0.023,2.495,1.985,4.161,4.354,4.354
	c6.43,0.521,15.209,0.178,17.018-7.312c0.996-4.125,0.825-8.803,1.175-13.026c0.312-3.768,0.681-7.522,1.069-11.277
	c3.266-0.395,6.561-0.437,9.832-0.106C298.676,357.56,298.521,374.157,298.346,390.755z"/>
<path d="M436.959,420.267c-2.034-13.926-3.949-27.868-5.879-41.809c-0.942-6.802-1.884-13.604-2.826-20.406
	c-0.518-3.741-1.035-7.482-1.554-11.224c-0.364-2.633-0.316-5.721-1.478-8.161c-2.211-4.65-8.438-3.962-12.712-4.019
	c-0.636-0.008-1.274-0.011-1.915-0.015c0.201-2.318,0.232-4.606,0.123-6.878c9.891-3.989,15.638-13.875,16.272-24.467
	c0.888-14.806-7.908-26.904-14.411-39.376c-1.314-2.521-4.722-2.076-6.138,0c-8.176,11.989-21.8,21.392-22.493,37.055
	c-0.567,12.795,7.154,28.51,21.121,27.979c0.22,1.898,0.347,3.811,0.353,5.739c-4.847,0.13-9.719,0.532-14.392,1.561
	c-1.871,0.412-3.214,2.377-3.221,4.23c-0.007,1.941-0.121,3.893-0.283,5.848c-5.035,27.134-9.872,54.304-14.586,81.496
	c-0.558,3.222,1.287,5.519,4.482,5.884c6.304,0.719,12.609,1.425,18.914,2.137c1.898,0.215,4.252-1.621,4.592-3.496
	c1.583-8.737,2.717-17.543,3.304-26.4c1.558-0.104,3.116-0.183,4.677-0.251c1.513,8.484,2.178,16.993,2.188,25.646
	c0.004,2.8,2.213,4.522,4.801,4.8c5.482,0.589,12.465,0.259,17.281-2.754C438.145,430.278,437.711,425.411,436.959,420.267z
	 M393.737,292.459c3.786-7.872,11.368-13.183,16.229-20.293c5.588,7.867,10.059,17.065,10.475,26.699
	c0.369,8.539-3.182,17.08-10.761,21.027c-0.622-2.794-1.509-5.571-2.691-8.345c-1.382-3.238-7.044-0.901-5.745,2.422
	c1.194,3.052,2.15,6.154,2.854,9.298C392.225,321.043,389.197,301.899,393.737,292.459z M428.145,423.536
	c-0.373,2.606-1.5,2.6-4.337,3.015c-1.085,0.159-2.169,0.211-3.253,0.219c-0.425-9.032-1.744-17.986-3.826-26.795
	c-0.41-1.728-2.389-3.39-4.232-3.222c-4.121,0.374-8.186,0.842-12.324,0.958c-2.544,0.072-3.98,1.926-4.288,4.288
	c-1.044,7.993-2.206,15.963-3.501,23.917c-3.225-0.327-6.447-0.651-9.671-0.976c3.794-25.069,7.482-50.153,11.003-75.262
	c0.48-1.675,0.998-3.333,1.569-4.963c4.382-0.25,8.759-0.708,13.153-0.819c2.548-0.064,5.662,0.483,8.145,0.015
	c0.246,0.04,0.451,0.067,0.652,0.094c0.055,0.383,0.109,0.767,0.163,1.15c-0.384,2.293,0.809,5.842,1.13,8.163
	c0.377,2.721,0.754,5.442,1.131,8.163c0.707,5.102,1.412,10.203,2.119,15.305c1.412,10.203,2.824,20.407,4.237,30.61
	c0.368,2.658,0.728,5.317,1.075,7.979C427.402,417.764,428.484,421.164,428.145,423.536z"/>
<path d="M411.525,362.646c-0.353-0.993-1.17-1.762-2.135-2.22c-1.232-1.26-3.588-1.326-4.461,0.57
	c-0.347,0.415-0.602,0.954-0.699,1.65c-0.063,0.447-0.113,0.893-0.169,1.339c-1.669,6.113-3.339,12.227-5.008,18.34
	c-0.503,1.839,0.623,3.681,2.405,4.236c3.752,1.17,7.539,1.758,11.469,1.778c1.852,0.01,4.016-1.743,3.766-3.766
	C415.752,376.955,414.094,369.878,411.525,362.646z"/>
<path d="M511.999,305.079c-0.135-15.755-11.981-30.061-24.904-37.882c-2.616-1.583-5.288,0.534-5.578,3.201
	c-1.565,14.364-13.388,25.183-14.672,39.706c-0.901,10.212,5.022,21.331,15.767,21.829c-0.211,2.092-0.479,4.179-0.832,6.263
	c-0.704-0.015-1.407-0.027-2.109-0.034c-2.052-0.02-3.448,1.38-4.145,3.156c-1.943,4.953-3.838,9.932-5.825,14.872
	c-2.616-5.021-5.019-10.158-7.071-15.421c-0.697-1.786-2.189-3.316-4.264-3.245c-6.098,0.208-12.199,0.357-18.292,0.681
	c-3.843,0.204-4.962,4.408-3.296,6.791c1.684,6.738,4.445,13.366,7.674,19.492c3.504,6.651,8.648,12.267,12.143,18.864
	c3.392,6.404,0.79,15.567,0.145,22.425c-0.833,8.836-1.936,17.695-2.421,26.556c-0.138,2.498,2.358,5.098,4.897,4.898
	c5.053-0.398,10.117-0.77,15.135-1.498c3.577-0.519,7.625-0.866,9.836-4.141c1.954-2.896,1.097-6.796,0.799-9.998
	c-0.506-5.452-1.007-10.904-1.518-16.355c-0.48-5.136-1.941-11.155-0.587-16.227c1.161-4.346,3.398-8.529,5.187-12.64
	c4.355-10.002,8.754-19.985,13.132-29.977c1.062-2.424,0.365-5.493-2.538-6.236c-3.545-0.908-7.184-1.404-10.842-1.68
	c0.271-1.162,0.514-2.328,0.739-3.496C502.2,332.547,512.114,318.589,511.999,305.079z M472.963,316.402
	c-1.086-6.295,1.375-12.676,4.226-18.16c3.818-7.35,8.238-14.043,10.497-21.819c8.998,6.404,16.738,15.634,16.719,27.189
	c-0.017,9.864-6.408,17.955-14.638,22.582c0.144-1.852,0.223-3.711,0.206-5.58c-0.037-4.314-6.576-4.306-6.693,0
	c-0.063,2.298-0.156,4.587-0.303,6.868C477.712,326.424,473.883,321.736,472.963,316.402z M491.466,347.767
	c-2.935,6.914-5.868,13.827-8.803,20.74c-3.021,7.117-7.944,14.915-8.509,22.767c-0.66,9.209,1.244,19.087,2.002,28.275
	c0.153,1.858,0.659,4.276,0.506,6.133c-0.041,0.316-0.063,0.562-0.07,0.764c-1.136,0.222-2.277,0.402-3.43,0.516
	c-2.836,0.345-5.656,0.528-8.484,0.571c0.809-7.238,1.377-14.515,2.074-21.758c0.707-7.354,2.764-15.857,0.063-23.018
	c-2.646-7.009-8.494-12.504-12.537-18.707c-3.657-5.609-6.641-11.455-9.438-17.46c3.509-0.035,7.019-0.106,10.527-0.171
	c3.019,7.622,6.606,14.84,11.144,21.742c2.109,3.209,6.537,2.452,7.813-1.021c2.508-6.828,5.335-13.535,8.128-20.252
	C485.474,347.073,488.469,347.404,491.466,347.767z"/>
<path d="M52.926,354.955c-3.867-12.354-14.43-19.715-26.729-21.413c0.039-1.076,0.061-2.149,0.072-3.221
	c11.514-3.939,17.401-16.803,17.993-28.211c0.806-15.531-7.874-29.592-16.271-41.918c-1.426-2.091-4.379-2.217-5.779,0
	C14.7,272.088,5.493,285.345,3.663,299.65c-1.533,11.972,4.643,23.341,15.313,28.884c0.373,0.194,0.74,0.294,1.096,0.334
	c0.025,1.396,0.048,2.793,0.029,4.191c-5.504-0.25-13.267-0.175-16.449,3.534c-2.201,2.565-1.874,5.922-1.778,9.078
	c0.136,4.482,0.271,8.964,0.408,13.446c0.21,6.921,0.382,13.843,0.544,20.766c-0.377,6.561-0.746,13.124-1.1,19.687
	c-0.258,4.768-0.514,9.537-0.771,14.305c-0.273,5.069-1.406,10.874-0.758,15.911c0.998,7.776,9.477,9.286,16.064,9.634
	c14.965,0.791,29.08-8.407,34.745-22.187c4.504-10.958,3.487-25.011-5.046-33.372C52.879,376.096,56.153,365.262,52.926,354.955z
	 M25.276,267.84c6.332,9.137,11.81,19.469,11.813,30.745c0.006,9.528-4.021,17.57-11.053,23.288c-0.25-3.699-0.7-7.39-1.389-11.09
	c-0.6-3.214-6.147-2.524-5.773,0.781c0.4,3.547,0.728,7.096,0.945,10.648C0.436,308.851,14.93,284.166,25.276,267.84z
	 M35.956,388.52c10.499,5.877,10.603,20.077,4.823,29.395c-3.35,5.399-8.378,9.169-14.514,10.847
	c-2.727,0.746-5.557,1.05-8.381,0.896c-1.736-0.095-3.404-0.358-5.088-0.793c-1.719-0.444-1.681-0.336-2.242-1.707
	c-1.01-2.466-0.006-7.534-0.008-10.218l-0.008-11.24c-0.006-7.152,0.002-14.305-0.016-21.458c-0.023-9.48-0.107-18.959-0.215-28.438
	c0.014-1.654,0.027-3.308,0.041-4.962c0.006-0.669-0.065-1.571-0.136-2.558c-0.021-1.502-0.035-3.004-0.057-4.507
	c0.013-0.113,0.026-0.225,0.044-0.334c4.779-0.899,11.219-0.135,15.48,0.386c5.9,0.721,11.416,3.252,15.061,8.066
	c6.922,9.143,4.627,21.828-4.786,28.194C33.022,382.075,32.582,386.632,35.956,388.52z"/>
<path d="M23.106,352.595c-1.911-0.152-3.476,1.729-3.505,3.504c-0.043,2.686,0.063,5.354,0.325,8.02
	c-0.121,2.297-0.184,4.598-0.28,6.92c-0.054,1.294,1.045,2.938,2.4,3.152c6.135,0.972,12.248-3.298,12.547-9.785
	C34.895,357.883,29.217,353.08,23.106,352.595z"/>
<path d="M32.036,395.814c-2.767-1.861-7.708-3.069-10.412-0.371c-1.527,1.523-1.447,3.587-1.258,5.568
	c0.111,1.163,0.21,2.341,0.325,3.517c0,0.302-0.004,0.606-0.01,0.913c-0.063,2.644-0.482,5.625-0.157,8.252
	c0.495,3.999,4.384,5.313,7.714,3.408C35.587,412.898,40.521,401.52,32.036,395.814z"/>
<path d="M99.438,412.065c-0.318-4.756-0.635-9.513-0.951-14.269c-1.268-19.017-2.058-38.068-3.416-57.077
	c-0.178-2.499-1.997-4.705-4.674-4.674c-3.652,0.042-7.293,0.113-10.932,0.221c0-1.289-0.016-2.581-0.041-3.872
	c0.195-0.035,0.389-0.062,0.596-0.126c11.492-3.567,16.8-15.48,16.639-26.844c-0.188-13.254-5.938-26.283-12.876-37.323
	c-1.435-2.28-5.517-2.155-6.118,0.8c-2.544,12.494-14.627,20.126-15.857,33.383c-1.02,10.978,3.977,21.443,12.889,27.739
	c0.326,2.132,0.678,4.259,1.072,6.373c-2.433,0.09-4.865,0.19-7.303,0.317c-2.234,0.116-4.16,1.808-4.15,4.151
	c0.032,8.789,0.164,17.563,0.417,26.33c-0.208,10.946,0.019,21.941,0.09,32.7c0.032,4.833,0.161,9.668,0.294,14.5
	c0.113,4.063-0.558,9.058,0.648,12.937c2.258,7.263,11.881,4.666,17.366,3.948c5.737-0.751,14.093-1.191,16.261-7.785
	C100.549,419.972,99.676,415.661,99.438,412.065z M69.2,298.263c2.433-7.878,8.685-13.632,12.422-20.79
	c7.827,14.628,14.316,38.593-2.569,46.549c-0.121-1.715-0.264-3.427-0.451-5.131c-0.36-3.278-5.487-3.392-5.225,0
	c0.084,1.076,0.194,2.152,0.304,3.228C68.708,315.369,66.688,306.398,69.2,298.263z M91.337,419.596
	c-1.058,3.213-10.401,4.105-13.192,3.984c-5.699-0.247-4.404-8.451-4.624-12.294c-0.434-7.595-0.866-15.191-1.26-22.789
	c-0.171-3.288-0.281-6.586-0.371-9.889c-0.034-11.16,0.136-22.322,0.562-33.462c4.533,0.138,9.059,0.214,13.594,0.237
	c0.918,13.401,2.16,26.78,3.054,40.182c0.498,7.475,0.997,14.949,1.495,22.423C90.795,411.002,92.289,416.707,91.337,419.596z"/>
<path d="M173.883,424.164c-6.441-13.199-12.967-26.346-19.325-39.587c7.948-9.646,12.187-22.526,4.665-33.907
	c-5.732-8.673-14.781-12.938-24.475-13.673c0.205-1.08,0.379-2.161,0.538-3.242c0.536-0.069,1.103-0.251,1.688-0.577
	c12.057-6.708,17.991-21.472,16.397-34.839c-0.751-6.301-3.053-12.608-6.395-18.001c-2.857-4.608-8.022-12.104-13.388-13.876
	c-5.817-1.921-10.146,7.529-12.651,11.182c-4.291,6.25-10.393,13.683-12.024,21.246c-1.552,7.194,3.349,13.235,7.327,18.659
	c4.087,5.572,8.497,10.438,14.387,14.032c-0.061,1.768-0.147,3.536-0.291,5.306c-2.623,0.084-5.264,0.411-7.871,0.965
	c-6.594,1.404-11.878,3.89-12.082,11.321c-0.238,8.688,0.704,17.584,1.061,26.269c0.664,16.166,1.592,32.31,2.634,48.454
	c-0.03,1.888-0.052,3.776-0.05,5.664c0.004,1.79,1.311,3.695,3.121,4.099c5.242,1.171,17.135,4.562,20.734-1.286
	c1.922-3.122,1.64-8.029,2.157-11.532c0.118-0.794,0.243-1.587,0.364-2.381c1.463,3.613,2.691,7.322,3.644,11.147
	c0.47,1.886,2.351,3.224,4.257,3.24c7.607,0.062,15.123-0.374,22.65-1.488C174.325,430.86,175.105,426.671,173.883,424.164z
	 M115.884,302.711c-0.46-5.393,4.814-11.526,7.644-15.837c1.396-2.126,2.825-4.23,4.288-6.311c1.103-1.568,2.813-4.864,4.61-6.595
	c3.696,1.87,7.312,7.541,9.077,10.487c2.836,4.733,4.497,9.926,4.632,15.463c0.221,9.049-3.686,17.23-10.031,23.322
	c0.047-4.999-0.383-10.014-1.315-15.046c-0.684-3.685-6.19-2.095-5.589,1.541c0.865,5.233,1.344,10.47,1.461,15.716
	c-2.771-2.747-5.146-5.903-7.35-9.113C120.768,312.632,116.277,307.32,115.884,302.711z M151.43,423.814
	c-2.477-7.238-5.563-14.151-9.538-20.745c-2.252-3.735-7.055-1.72-7.539,2.042c-0.505,3.921-1.005,7.843-1.516,11.763
	c-0.352,2.699-0.262,7.438-1.386,10.521c-2.665,0.236-6.296-0.598-9.229-1.295c-0.682-7.696-1.287-15.39-1.657-23.112
	c-0.024-0.512-0.157-0.944-0.354-1.312c-0.057-16.242-0.246-32.48-0.506-48.728c-0.063-3.846,0.496-4.866,4.367-5.852
	c2.83-0.72,5.706-1.128,8.629-1.138c5.737-0.019,11.496,1.581,15.84,5.461c9.946,8.882,4.554,20.668-2.947,29.028
	c-1.504,1.676-1.713,3.75-0.74,5.738c5.942,12.139,11.713,24.347,17.525,36.542C158.739,423.188,155.092,423.557,151.43,423.814z"/>
<path d="M132.912,355.338c-3.987,1.193-4.885,4.774-4.507,8.725c-0.28,3.129-0.573,6.321-0.282,9.346
	c0.27,2.796,1.868,5.298,4.826,5.659c6.52,0.794,12.787-6.527,12.916-12.588C146.002,359.953,139.679,353.312,132.912,355.338z"/>
<path d="M232.064,352.06c-0.379-5.167-0.855-10.317-1.496-15.458c-0.282-2.258-1.775-4.49-4.371-4.37
	c-8.467,0.391-16.861,1.108-25.199,2.225c0.029-1.739,0.033-3.488,0.013-5.241c11.623-4.068,18.384-15.69,18.021-27.874
	c-0.203-6.8-2.621-13.479-6.205-19.208c-1.752-2.803-3.813-5.427-6.005-7.898c-1.739-1.958-4.222-5.259-6.889-6.082
	c-2.481-0.766-4.067,0.485-5.611,2.303c-2.645,3.114-4.634,7.046-6.896,10.456c-4.045,6.093-11.187,13.563-11.227,21.349
	c-0.035,6.813,5.153,13.676,9.116,18.775c2.552,3.282,5.677,7.307,9.584,8.273c0.146,1.987,0.256,3.981,0.313,5.989
	c-5.591,0.883-11.159,1.952-16.705,3.257c-1.937,0.372-3.871,0.767-5.804,1.19c-1.521,0.333-2.952,2.104-2.816,3.7
	c0.348,4.12,0.766,8.235,0.912,12.368c0.127,3.544-0.561,8.56,1.664,11.641c1.524,2.11,3.86,2.838,6.374,2.942
	c2.19,0.09,4.478-0.23,6.661-0.37c0.631-0.041,2.536,0.143,3.051-0.196c0.014,0.003,0.024,0.003,0.038,0.006
	c-0.448,1.75,0.245,5.122,0.28,6.854c0.049,2.416,0.089,4.832,0.104,7.248c0.027,4.832,0.008,9.665-0.033,14.497
	c-0.081,9.438-1.151,19.181-0.631,28.588c0.451,8.16,7.06,8.089,13.52,7.22c5.852-0.787,15.529-1.419,17.539-8.303
	c1.008-3.454,0.305-7.585,0.178-11.118c-0.188-5.157-0.466-10.317-0.906-15.459c-0.382-4.461-0.89-8.915-1.463-13.355
	c-0.226-1.745-0.461-3.489-0.707-5.231c-0.192-1.361-0.396-2.721-0.602-4.08c-0.087-0.576-0.066-1.508-0.156-2.102
	c0.429-0.104,0.877-0.255,0.949-0.261c1.379-0.099,2.918-0.63,4.289-0.912c1.969-0.405,4.059-0.648,5.957-1.313
	c2.768-0.968,4.916-2.851,5.622-5.804C233.561,361.989,232.388,356.46,232.064,352.06z M187.787,312.2
	c-1.389-2.255-3.033-4.784-3.859-7.307c-1.102-3.36,0.098-5.699,1.764-8.559c2.723-4.672,5.918-9.134,8.881-13.658
	c0.588-0.896,3.063-5.803,4.271-6.791c-0.201,0.51,1.817,1.883,2.516,2.649c5.894,6.465,10.441,15.276,9.92,24.232
	c-0.416,7.146-4.32,14.556-10.637,18.168c-0.291-3.615-0.764-7.198-1.525-10.687c-0.732-3.356-6.464-2.688-6.094,0.825
	c0.369,3.485,0.777,6.932,1.146,10.374C191.49,318.659,188.648,313.599,187.787,312.2z M224.18,364.372
	c-0.568,0.83-5.235,1.143-6.264,1.353c-1.695,0.346-3.5,0.568-5.17,1.018c-3.046,0.82-5.17,2.548-5.6,5.806
	c-0.527,3.997,0.856,8.457,1.299,12.438c0.533,4.785,0.943,9.579,1.294,14.38c0.401,5.492,0.722,10.986,0.882,16.491
	c0.032,1.098,0.62,5.22,0.127,6.192c-1.035,2.044-4.401,2.009-6.43,2.347c-0.317,0.053-4.082,0.576-6.379,0.779
	c0.012-0.974,0.025-1.948,0.035-2.922c0.055-5.522,0.103-11.044,0.108-16.566c0.011-9.666-0.146-19.33-0.288-28.994
	c-0.058-3.872,0.933-9.637-1.452-13.034c-2.105-3-5.526-2.907-8.812-2.778c-2.373,0.094-4.748,0.28-7.119,0.424
	c-0.324,0.023-0.648,0.039-0.972,0.059c0.413-0.256,0.349-0.89-0.204-1.911c0.355-2.48-0.79-5.892-1.032-8.393
	c-0.147-1.52-0.272-3.042-0.396-4.564c6.49-1.376,13.018-2.613,19.574-3.679c8.268-0.886,16.566-1.492,24.869-1.739
	c0.35,3.66,0.695,7.32,0.99,10.984c0.156,1.935,0.301,3.871,0.431,5.808C223.746,358.932,224.699,363.612,224.18,364.372z"/>
<path d="M367.659,356.925c-3.442-8.238-9.417-15.794-17.497-19.879c-4.164-2.104-8.6-3.156-13.232-3.428
	c0.072-0.872,0.115-1.754,0.17-2.633c10.36-2.396,17.592-11.938,18.844-22.678c1.715-14.718-6.596-27.129-16.078-37.488
	c-1.871-2.044-5.63-1.035-6.257,1.652c-1.545,6.623-6.562,11.123-10.306,16.54c-3.609,5.222-5.78,11.366-6.28,17.696
	c-0.372,4.706,0.438,9.695,2.396,13.997c0.949,2.086,2.223,4.077,3.951,5.604c2.095,1.848,4.416,2.267,7.059,2.904
	c0.275,0.067,0.568,0.143,0.764,0.351c0.246,0.264,0.264,0.663,0.268,1.024c0.008,0.873-0.205,2.047,0.24,2.829
	c-1.688,0.492-3.967,0.184-5.776,0.406c-1.949,0.239-3.716,0.811-5.601,1.282c-5.048,1.917-5.285,6.67-5.297,11.365
	c-0.02,7.095,0.021,14.19,0.033,21.285c0.012,8.1,0.049,16.197,0.119,24.294c-0.321,10.308-0.566,20.615-0.705,30.917
	c-0.053,3.921,0.057,8.026,3.957,10.15c3.98,2.167,9.792,1.362,14.047,0.719c9.974-1.506,21.18-5.787,27.482-14.023
	c6.459-8.442,8.928-20.604,10.506-30.883C372.113,378.2,371.893,367.056,367.659,356.925z M324.185,310.137
	c0.044-5.107,1.231-10.126,3.747-14.588c3.125-5.545,7.818-9.884,10.738-15.368c5.91,6.536,10.067,14.582,9.946,23.682
	c-0.108,8.171-4.386,15.216-11.2,18.738c0.041-2.66,0.051-5.31,0.051-7.907c0-4.097-6.367-4.104-6.367,0
	c0,2.987,0.006,6.039,0.067,9.102C325.197,323.514,324.145,314.682,324.185,310.137z M356.285,408.097
	c-3.523,8.83-10.948,13.256-19.842,15.705c-2.299,0.633-4.645,1.061-7.021,1.251c-0.879,0.07-5.541,0.691-6.346-0.125
	c0.932,0.945,0.576-4.311,0.566-5.062c-0.039-2.754-0.072-5.508-0.111-8.262c-0.119-8.689-0.254-17.38-0.391-26.07
	c0.067-10.656,0.088-21.312,0.107-31.97c0.004-2.36-0.061-4.735,0.012-7.095c0.09-2.959-0.018-3.248,2.98-3.458
	c4.813-0.335,9.685-0.487,14.416,0.627c7.211,1.698,12.873,6.544,16.613,12.842C366.291,371.671,362.512,392.496,356.285,408.097z"
	/>
<path d="M337.609,358.72c-6.51,0.839-4.62,10.699-4.605,15.199c0.018,5.301,0.209,10.592,0.531,15.876
	c-0.004,0.452-0.008,0.903-0.01,1.356c-0.025,4.85-2.268,15.886,4.135,17.769c5.639,1.658,10.625-5.464,13.301-9.304
	c3.586-5.148,5.962-11.295,6.08-17.612C357.219,372.361,349.162,357.23,337.609,358.72z M346.788,391.542
	c-0.929,1.802-3.419,6.367-5.849,8.485c-0.156-2.101-0.022-4.985-0.082-5.902c-0.219-3.303-0.408-6.607-0.582-9.913
	c-0.066-1.253-0.129-2.504-0.191-3.755c0.043-2.18,0.096-4.359,0.187-6.538c0.061-1.438-0.272-4.772-0.025-7.155
	c5.651,1.503,9.216,9.272,9.24,14.436C349.503,384.812,348.433,388.353,346.788,391.542z"/>
<g>
</g>
<g>
</g>
<g>
</g>
<g>
</g>
<g>
</g>
<g>
</g>
<g>
</g>
<g>
</g>
<g>
</g>
<g>
</g>
<g>
</g>
<g>
</g>
<g>
</g>
<g>
</g>
<g>
</g>
</svg>
